# xmcd
#
# Track frame offsets:
#	150
#	12746
#	24776
#	38719
#	56301
#	73649
#	90010
#	102935
#	115964
#	132818
#	146287
#	160633
#	175426
#
# Disc length: 2569 seconds
# Revision: 0
# Processed by: cddbd v1.5.2PL0 Copyright (c) Steve Scherf et al.
# Submitted via: dBpowerAMP V12.0
#
DISCID=990a070d
DTITLE=Bernard Paquette - Le jour de votre mariage
DYEAR=2008
DGENRE=Country
TTITLE0=Le temps de la retraite
TTITLE1=Du berceau jusque dans le tombeau
TTITLE2=Mes yeux n'ont jamais vu
TTITLE3=Les daltons
TTITLE4=Le jour de votre mariage
TTITLE5=Kiss me
TTITLE6=Vacances mexicaines
TTITLE7=Le vieux cowboy
TTITLE8=Je serai toujours-la
TTITLE9=Wheels
TTITLE10=Le vieil homme
TTITLE11=Barman
TTITLE12=Grand-pere jos
EXTD=
EXTT0=
EXTT1=
EXTT2=
EXTT3=
EXTT4=
EXTT5=
EXTT6=
EXTT7=
EXTT8=
EXTT9=
EXTT10=
EXTT11=
EXTT12=
PLAYORDER=
